<svg width="23" height="23" viewBox="0 0 23 23" fill="none" xmlns="http://www.w3.org/2000/svg">
<path d="M11.5 0C17.8514 0 23 5.14855 23 11.5C23 17.8514 17.8514 23 11.5 23C5.14855 23 0 17.8514 0 11.5C0 5.14855 5.14855 0 11.5 0ZM11.5 1.60425C8.87548 1.60425 6.35846 2.64683 4.50265 4.50265C2.64683 6.35846 1.60425 8.87548 1.60425 11.5C1.60425 14.1245 2.64683 16.6415 4.50265 18.4974C6.35846 20.3532 8.87548 21.3957 11.5 21.3957C14.1245 21.3957 16.6415 20.3532 18.4974 18.4974C20.3532 16.6415 21.3957 14.1245 21.3957 11.5C21.3957 8.87548 20.3532 6.35846 18.4974 4.50265C16.6415 2.64683 14.1245 1.60425 11.5 1.60425ZM10.4305 6.41815C10.8732 6.41815 11.232 6.7781 11.232 7.22085V12.8375H16.8486C17.0561 12.8453 17.2525 12.9333 17.3965 13.0828C17.5405 13.2324 17.621 13.4319 17.621 13.6396C17.621 13.8472 17.5405 14.0468 17.3965 14.1963C17.2525 14.3459 17.0561 14.4338 16.8486 14.4417H10.4305C10.2176 14.4417 10.0134 14.3571 9.86291 14.2066C9.71237 14.0561 9.6278 13.8519 9.6278 13.639V7.222C9.6278 6.7781 9.9866 6.41815 10.4305 6.41815Z" fill="#D44B4B"/>
</svg>
