<svg width="83" height="96" viewBox="0 0 83 96" fill="none" xmlns="http://www.w3.org/2000/svg">
<path d="M66.1635 7.35166C63.9361 5.11899 61.014 4 58.0919 4C55.1698 4 52.2477 5.11899 50.0204 7.35166L41.2117 16.1816L32.8537 7.80244C30.6263 5.56977 27.7042 4.45078 24.7822 4.45078C21.8601 4.45078 18.938 5.56977 16.7106 7.80244C13.412 10.8041 13.3642 15.8422 13.3642 15.8422L13.343 49.2686C13.343 51.496 14.6158 52.8218 16.753 52.8218H26.7497C29.2316 52.8218 30.1331 50.9922 30.1331 49.7671V37.2037C33.7871 40.6826 37.9661 44.6707 38.735 45.445C39.4563 46.1715 40.2465 46.8821 41.2859 46.914C41.3124 46.914 42.3253 47.1738 44.1284 45.3707C44.9982 44.4957 48.9226 40.5819 52.6084 36.9014V49.7671C52.6084 50.9975 53.5099 52.8218 55.9865 52.8218H65.9832C68.1151 52.8218 69.3932 51.4907 69.3932 49.2686C69.3932 49.2686 69.4144 15.5929 69.4144 15.3967C69.425 12.4534 68.4015 9.59494 66.1635 7.35166Z" fill="white"/>
<path d="M66.1635 7.35166C63.9361 5.11899 61.014 4 58.0919 4C55.1698 4 52.2477 5.11899 50.0204 7.35166L41.2117 16.1816L32.8537 7.80244C30.6263 5.56977 27.7042 4.45078 24.7822 4.45078C21.8601 4.45078 18.938 5.56977 16.7106 7.80244C13.412 10.8041 13.3642 15.8422 13.3642 15.8422L13.343 49.2686C13.343 51.496 14.6158 52.8218 16.753 52.8218H26.7497C29.2316 52.8218 30.1331 50.9922 30.1331 49.7671V37.2037C33.7871 40.6826 37.9661 44.6707 38.735 45.445C39.4563 46.1715 40.2465 46.8822 41.2859 46.914C41.3124 46.914 42.3253 47.1738 44.1284 45.3707C44.9982 44.4957 48.9226 40.5819 52.6084 36.9014V49.7671C52.6084 50.9975 53.5099 52.8218 55.9865 52.8218H65.9832C68.1151 52.8218 69.3932 51.4907 69.3932 49.2686C69.3932 49.2686 69.4144 15.5929 69.4144 15.3967C69.425 12.4534 68.4015 9.59494 66.1635 7.35166Z" stroke="white" stroke-width="6.7" stroke-miterlimit="10"/>
<path d="M66.7681 17.9583C66.8158 17.7939 66.8635 17.6242 66.9006 17.4545C66.9006 17.4545 66.9006 17.4545 66.9006 17.4492C66.9006 17.4492 66.9006 17.4492 66.9006 17.4545C66.8635 17.6242 66.8158 17.7886 66.7681 17.9583Z" fill="#74768C"/>
<path d="M64.4028 9.20692C64.2384 9.04252 64.0634 8.88873 63.8884 8.74023C64.0634 8.89403 64.2384 9.04252 64.4028 9.20692C66.1264 10.9305 67.0757 13.2215 67.0757 15.6557C67.0757 15.7883 67.0545 15.9208 67.0386 16.0534C67.0545 15.9208 67.0757 15.7936 67.0757 15.6557C67.0757 13.2215 66.1264 10.9305 64.4028 9.20692Z" fill="#74768C"/>
<path d="M64.4719 22.0262C64.4454 22.0527 64.4242 22.0792 64.3977 22.1057L61.1945 25.3089C59.6619 26.4438 57.7739 27.0696 55.8594 27.0696C55.3344 27.0696 54.82 27.0059 54.3162 26.9158C53.2396 26.7302 52.2267 26.3377 51.2933 25.7756C51.2297 25.7385 51.1554 25.7066 51.0918 25.6695C50.7524 25.4521 50.4448 25.1975 50.1372 24.9324C49.941 24.768 49.7342 24.6301 49.5485 24.4498L49.2569 24.1581L48.0848 22.9861L42.8929 17.7942L51.4895 9.1976C53.2131 7.47404 55.5041 6.52476 57.9383 6.52476C61.8627 6.52476 64.228 9.0332 64.3924 9.1976C65.1772 9.98248 65.7924 10.8893 66.2379 11.8704C66.3599 12.1409 66.4712 12.4167 66.5667 12.6924C66.8902 13.6311 67.0652 14.6281 67.0652 15.6464C67.0705 15.7949 67.3092 19.1942 64.4719 22.0262ZM66.9963 48.919C66.9963 50.1016 66.5508 50.3244 65.7288 50.3244H55.8753C54.8783 50.3244 54.6503 49.8153 54.6344 49.4122V34.8813H54.6291C57.2489 32.2615 64.1696 25.3407 65.6174 23.8929C66.1583 23.352 66.6038 22.7899 66.991 22.2277V48.919H66.9963ZM42.7126 43.6104C41.8853 44.4378 41.583 44.5279 41.4558 44.5173C41.2702 44.512 40.936 44.1938 40.358 43.6847C35.7654 39.6807 18.6783 22.5565 18.6783 22.5565C13.6773 16.7813 16.9547 11.3772 18.6783 9.65368C20.4018 7.93012 22.6928 6.98084 25.1323 6.98084C27.5718 6.98084 29.8628 7.93012 31.5811 9.65368L47.9735 26.0461C50.6251 28.6977 54.3374 29.8803 56.4958 29.8803C52.8578 33.4918 44.065 42.2528 42.7126 43.6104ZM28.309 49.4069C28.309 49.619 28.2188 50.3191 27.068 50.3191H17.2146C16.3926 50.3191 15.9471 50.0963 15.9471 48.9137V22.5565C15.9789 22.5936 16.0054 22.6202 16.0054 22.6202C16.3608 23.1187 16.7267 23.6066 17.1774 24.052L24.7611 31.6357L24.7293 31.6675C24.7505 31.6887 25.2225 32.1342 25.9809 32.8501L28.3143 35.1836V49.4069H28.309ZM65.9038 7.70739C63.7082 5.51184 60.8286 4.41406 57.9489 4.41406C55.0692 4.41406 52.1949 5.51184 49.994 7.70739L41.3126 16.3888L33.0766 8.15286C30.8811 5.95731 28.0014 4.85954 25.1217 4.85954C22.2421 4.85954 19.3624 5.95731 17.1668 8.15286C13.9159 11.1068 13.8735 16.06 13.8735 16.06H13.8523V48.919C13.8523 51.1093 15.1092 52.4139 17.2093 52.4139H27.0627C29.5075 52.4139 30.3932 50.6161 30.3932 49.4069V37.0556C33.9941 40.4762 38.1094 44.4006 38.8731 45.159C39.5837 45.8696 40.3633 46.5697 41.3868 46.6015C41.4133 46.6015 42.4157 46.8613 44.1869 45.0848C45.0461 44.2256 48.9068 40.3755 52.5449 36.7533V49.4069C52.5449 50.6161 53.4305 52.4139 55.8753 52.4139H65.7288C67.8342 52.4139 69.0857 51.1093 69.0857 48.919C69.0857 48.919 69.107 15.8108 69.107 15.6198C69.1176 12.7243 68.1099 9.91354 65.9038 7.70739Z" fill="#74768C"/>
<path d="M66.2483 11.8809C66.3703 12.1513 66.4816 12.4271 66.5771 12.7029C66.4816 12.4218 66.3703 12.146 66.2483 11.8809Z" fill="#D44B4B"/>
<path d="M48.0899 22.9966L49.2672 24.1686L42.9033 17.8047L48.0899 22.9966Z" fill="#D44B4B"/>
<path d="M67.0703 15.6568C67.0703 14.6332 66.8953 13.6415 66.5718 12.7028C66.4763 12.4218 66.3649 12.146 66.243 11.8808C65.7975 10.8997 65.1823 9.99288 64.3974 9.208C64.233 9.0436 61.8572 6.53516 57.9487 6.53516C55.5092 6.53516 53.2182 7.48444 51.4946 9.208L42.9033 17.8046L49.2672 24.1685L49.5589 24.4602C49.7392 24.6405 49.9514 24.7784 50.1476 24.9428C50.4552 25.2026 50.7681 25.4625 51.1022 25.6746C51.1658 25.717 51.2401 25.7436 51.3037 25.7807C52.2371 26.3375 53.25 26.7353 54.3265 26.9209C54.8357 27.011 55.3448 27.0694 55.8698 27.0694C57.7843 27.0694 59.6722 26.4436 61.2049 25.3087C61.2049 25.3087 64.4558 22.0525 64.477 22.026C67.3089 19.194 67.0703 15.7946 67.0703 15.6568Z" fill="#D44B4B"/>
<path d="M57.9487 6.53516C58.2298 6.53516 58.2298 6.53516 57.9487 6.53516C55.5092 6.53516 53.2182 7.48444 51.4946 9.208L42.9033 17.8046L51.4999 9.208C53.2235 7.48444 55.5145 6.53516 57.9487 6.53516Z" fill="#74768C"/>
<path d="M64.4028 22.1108C64.4293 22.0843 64.4506 22.0578 64.4771 22.0312C64.4453 22.0525 64.424 22.0843 64.4028 22.1108Z" fill="#74768C"/>
<path d="M63.5065 8.43281C63.4428 8.38508 63.3792 8.34265 63.3156 8.29492C64.477 9.85938 65.1134 11.7367 65.1134 13.7202C65.1134 13.9164 65.124 15.274 64.53 16.8597C64.0792 18.0847 63.3898 19.2196 62.4405 20.1742L59.2373 23.3774C57.7047 24.5176 55.8167 25.1381 53.9023 25.1381C53.3772 25.1381 52.8628 25.0744 52.359 24.9896C51.2825 24.804 50.2695 24.4062 49.3362 23.8494C49.2725 23.8123 49.1983 23.7804 49.1346 23.7433C48.7952 23.5259 48.4876 23.2713 48.1801 23.0062C48.0369 22.8895 47.8937 22.7781 47.7505 22.6614L48.0899 23.0009L49.2619 24.1729L49.5536 24.4646C49.7339 24.6449 49.946 24.7828 50.1423 24.9472C50.4499 25.207 50.7627 25.4669 51.0968 25.6843C51.1605 25.7267 51.2347 25.7532 51.2984 25.7904C52.2317 26.3472 53.2447 26.745 54.3212 26.9306C54.8303 27.0207 55.3394 27.0791 55.8645 27.0791C57.7789 27.0791 59.6669 26.4533 61.1995 25.3184L64.4027 22.1152C67.3248 19.1931 67.0756 15.8627 67.0756 15.6665C67.0756 13.2323 66.1263 10.9412 64.4027 9.21769C64.1163 8.92601 63.8194 8.67145 63.5065 8.43281Z" fill="#A1303C"/>
<path d="M12.4202 79.3213H10.6967C10.4315 79.3213 10.2936 79.2047 10.2936 78.9713V71.5149C10.2936 71.4354 10.2565 71.4354 10.177 71.5149L9.21707 74.0605L7.50942 78.4781C7.44578 78.6054 7.37684 78.7062 7.29729 78.7804C7.21774 78.86 7.10107 78.8971 6.94727 78.8971H5.87071C5.71161 78.8971 5.58964 78.8812 5.49418 78.8494C5.39873 78.8175 5.31386 78.7168 5.23431 78.5471L3.57441 74.1772L2.64103 71.5627C2.62512 71.5468 2.6039 71.5362 2.58268 71.5256C2.55617 71.5203 2.54557 71.5309 2.54557 71.5627V78.9713C2.54557 79.2047 2.40238 79.3213 2.12661 79.3213H0.418962C0.137889 79.3213 0 79.1888 0 78.9236V65.3685C0 65.0556 0.164413 64.9018 0.493215 64.9018H1.94099C2.12661 64.9018 2.2751 64.9177 2.37587 64.9495C2.47663 64.9813 2.57738 65.098 2.66754 65.2995C2.71527 65.4215 2.80543 65.6548 2.93801 65.989C3.07059 66.3231 3.22438 66.7155 3.39408 67.1557C3.56379 67.6012 3.74941 68.0731 3.94563 68.5716C4.14185 69.0702 4.31686 69.5421 4.48126 69.9823C4.64566 70.4278 4.79415 70.8149 4.92673 71.149C5.05931 71.4831 5.14947 71.7112 5.1972 71.8384L6.34271 74.8984C6.40635 75.0522 6.47529 75.0522 6.55484 74.8984C6.58666 74.7871 6.6556 74.5855 6.76696 74.2886C6.87303 73.9916 6.99501 73.6787 7.11698 73.3552C7.24426 73.0264 7.36093 72.7188 7.467 72.4218C7.57306 72.1248 7.65261 71.9233 7.70034 71.8119L10.2247 65.2942C10.352 65.0291 10.5959 64.8965 10.9565 64.8965H12.3513C12.6801 64.8965 12.8445 65.0503 12.8445 65.3632V78.9183C12.8445 79.1888 12.7013 79.3213 12.4202 79.3213Z" fill="#74768C"/>
<path d="M20.3008 70.6776L19.7387 67.9888C19.7227 67.9252 19.6962 67.8934 19.6591 67.8828C19.622 67.8722 19.5902 67.9093 19.5796 67.9888L19.0439 70.6299L18.3174 73.9709C18.3015 74.0505 18.3015 74.1035 18.3174 74.1353C18.3333 74.1671 18.3863 74.183 18.4818 74.183H20.9107C21.0645 74.183 21.1122 74.1035 21.0486 73.9497L20.3008 70.6776ZM24.973 78.8287C25.0048 78.9082 25.0101 79.009 24.9836 79.131C24.9571 79.253 24.8404 79.3166 24.623 79.3166H22.7297C22.4805 79.3166 22.3267 79.2158 22.263 79.0143L21.7274 76.6756C21.6956 76.5536 21.6584 76.4634 21.6213 76.421C21.5842 76.3733 21.5153 76.3521 21.4198 76.3521H17.9621C17.8348 76.3521 17.7606 76.3839 17.7287 76.4475C17.6969 76.5112 17.6651 76.5801 17.6333 76.6597C17.6014 76.7816 17.5643 76.9513 17.5166 77.1635C17.4689 77.3756 17.4211 77.5983 17.3628 77.8423C17.3098 78.0862 17.2567 78.3143 17.209 78.5317C17.1613 78.7492 17.1242 78.9135 17.0923 79.0249C17.0605 79.1363 17.0022 79.2105 16.9173 79.2583C16.8325 79.306 16.7423 79.3272 16.6469 79.3272H14.8491C14.6316 79.3272 14.5044 79.2795 14.4619 79.184C14.4248 79.0886 14.4195 78.9825 14.4513 78.8552L17.8613 65.2311C17.9409 65.0137 18.1053 64.9023 18.3545 64.9023H21.0167C21.1228 64.9023 21.2183 64.9129 21.2978 64.9395C21.3774 64.966 21.4304 65.0508 21.4622 65.2099L24.973 78.8287Z" fill="#74768C"/>
<path d="M35.0918 67.1244H29.8787C29.7249 67.1244 29.6242 67.1562 29.5764 67.2199C29.5287 67.2835 29.5075 67.3684 29.5075 67.4744V78.9507C29.5075 79.1999 29.3802 79.3219 29.1363 79.3219H27.3331C27.0839 79.3219 26.9619 79.2052 26.9619 78.9719V65.2789C26.9619 65.0296 27.0839 64.9023 27.3331 64.9023H35.0971C35.1926 64.9023 35.2774 64.9289 35.3517 64.9819C35.4312 65.0349 35.4683 65.1251 35.4683 65.2524V66.7691C35.463 67.0077 35.3411 67.1244 35.0918 67.1244Z" fill="#74768C"/>
<path d="M41.8692 70.6776L41.307 67.9888C41.2911 67.9252 41.2646 67.8934 41.2275 67.8828C41.1904 67.8722 41.1585 67.9093 41.1479 67.9888L40.6123 70.6299L39.8858 73.9709C39.8698 74.0505 39.8698 74.1035 39.8858 74.1353C39.9017 74.1671 39.9547 74.183 40.0502 74.183H42.479C42.6328 74.183 42.6806 74.1035 42.6169 73.9497L41.8692 70.6776ZM46.5413 78.8287C46.5732 78.9082 46.5785 79.009 46.5519 79.131C46.5307 79.253 46.4088 79.3166 46.1913 79.3166H44.2981C44.0488 79.3166 43.895 79.2158 43.8314 79.0143L43.2957 76.6756C43.2639 76.5536 43.2268 76.4634 43.1897 76.421C43.1526 76.3733 43.0836 76.3521 42.9881 76.3521H39.5304C39.4032 76.3521 39.3289 76.3839 39.2971 76.4475C39.2653 76.5112 39.2334 76.5801 39.2016 76.6597C39.1698 76.7816 39.1327 76.9513 39.085 77.1635C39.0372 77.3756 38.9895 77.5983 38.9312 77.8423C38.8781 78.0862 38.8251 78.3143 38.7774 78.5317C38.7296 78.7492 38.6925 78.9135 38.6607 79.0249C38.6289 79.1363 38.5705 79.2105 38.4857 79.2583C38.4008 79.306 38.3107 79.3272 38.2152 79.3272H36.4174C36.2 79.3272 36.0727 79.2795 36.0303 79.184C35.9932 79.0886 35.9879 78.9825 36.0197 78.8552L39.4297 65.2311C39.5092 65.0137 39.6736 64.9023 39.9229 64.9023H42.5851C42.6965 64.9023 42.7866 64.9129 42.8662 64.9395C42.9457 64.9607 42.9988 65.0508 43.0306 65.2099L46.5413 78.8287Z" fill="#74768C"/>
<path d="M52.5711 64.668C53.3029 64.668 53.9552 64.7634 54.5227 64.9596C55.0901 65.1559 55.5674 65.421 55.9493 65.7551C56.3311 66.0892 56.6228 66.4976 56.8243 66.9696C57.0258 67.4469 57.1266 67.9613 57.1266 68.5234C57.1266 69.1598 56.9569 69.7591 56.6122 70.3106C56.2675 70.8622 55.8273 71.2493 55.2811 71.4667C55.2493 71.4827 55.228 71.5039 55.2227 71.5357C55.2121 71.5675 55.228 71.5993 55.2599 71.6311C55.8379 71.8168 56.3364 72.1986 56.766 72.7766C57.1955 73.3547 57.4077 74.0388 57.4077 74.8343C57.4077 75.5662 57.2804 76.2185 57.0311 76.7859C56.7819 77.3534 56.4319 77.836 55.9811 78.2337C55.5303 78.6315 54.9947 78.9337 54.3795 79.1459C53.7643 79.358 53.0908 79.4641 52.359 79.4641C51.9082 79.4641 51.4574 79.4322 51.0066 79.3686C50.5559 79.305 50.1263 79.1936 49.7232 79.0292C49.3149 78.8648 48.9384 78.6527 48.5883 78.3875C48.2383 78.1223 47.9361 77.7776 47.6868 77.3587C47.6232 77.2367 47.5966 77.1306 47.6073 77.0405C47.6126 76.9556 47.6815 76.8655 47.8035 76.77L49.0444 75.8578C49.1823 75.7624 49.299 75.7253 49.3838 75.7412C49.4687 75.7571 49.5748 75.8366 49.702 75.9745C49.9354 76.2874 50.2854 76.5526 50.7521 76.77C51.2188 76.9874 51.7173 77.0988 52.2476 77.0988C52.9635 77.0988 53.5469 76.9026 53.9871 76.5154C54.4325 76.1283 54.6553 75.6033 54.6553 74.951C54.6553 74.235 54.4272 73.6835 53.9765 73.2911C53.5257 72.9039 52.9476 72.7077 52.2476 72.7077H50.7521C50.5028 72.7077 50.3756 72.5751 50.3756 72.31V70.9523C50.3756 70.8144 50.3968 70.7084 50.4445 70.6394C50.4922 70.5705 50.593 70.5334 50.7468 70.5334H52.4969C53.059 70.5334 53.5204 70.369 53.8863 70.0402C54.2522 69.7114 54.4378 69.2765 54.4378 68.7303C54.4378 68.2954 54.2681 67.903 53.934 67.5635C53.5999 67.2188 53.059 67.0491 52.3112 67.0491C51.9824 67.0491 51.6112 67.1234 51.1922 67.2719C50.7733 67.4204 50.3809 67.6643 50.0255 68.009C49.9301 68.0886 49.8187 68.1681 49.6861 68.253C49.5535 68.3378 49.4263 68.3272 49.299 68.2159L48.2224 67.2347C48.0845 67.1393 48.0156 67.0438 48.0209 66.9431C48.0315 66.8423 48.0633 66.7521 48.127 66.6726C48.6732 65.9408 49.3255 65.421 50.0892 65.1187C50.8581 64.8218 51.6855 64.668 52.5711 64.668Z" fill="#74768C"/>
<path d="M59.98 65.3001C59.98 65.0349 60.1285 64.9023 60.4255 64.9023H62.1543C62.4354 64.9023 62.5733 65.0349 62.5733 65.3001V74.0611C62.5733 74.1088 62.5839 74.13 62.6104 74.1194C62.6369 74.1141 62.6528 74.0929 62.6687 74.0611C63.4801 72.6133 64.2756 71.1602 65.0552 69.7018C65.8348 68.2434 66.6197 66.8009 67.4151 65.369C67.5053 65.2152 67.6061 65.0986 67.7174 65.019C67.8235 64.9395 67.9773 64.9023 68.1788 64.9023H69.4781C69.7539 64.9023 69.8971 65.0349 69.8971 65.3001V78.9242C69.8971 79.1893 69.7592 79.3219 69.4781 79.3219H67.7652C67.4894 79.3219 67.3462 79.1893 67.3462 78.9242V70.1632C67.3462 70.1154 67.3356 70.0942 67.325 70.0942H67.3038L67.2826 70.142C66.4871 71.6057 65.6863 73.0694 64.8855 74.5331C64.0847 75.9968 63.2839 77.4605 62.4884 78.9242C62.3771 79.1098 62.2763 79.2264 62.1861 79.2636C62.0907 79.3007 61.9422 79.3219 61.7407 79.3219H60.4308C60.1338 79.3219 59.9853 79.1893 59.9853 78.9242V65.3001H59.98Z" fill="#74768C"/>
<path d="M80.1005 65.2518C80.1005 65.0185 80.2331 64.9018 80.4982 64.9018H82.2961C82.593 64.9018 82.7415 65.0132 82.7415 65.2306V78.9501C82.7415 79.1994 82.6036 79.3213 82.3226 79.3213H80.5247C80.2437 79.3213 80.1058 79.2047 80.1058 78.9713V73.4772C80.1058 73.212 79.9732 73.0794 79.7081 73.0794H75.9003C75.7306 73.0794 75.6192 73.1165 75.5715 73.1855C75.5238 73.2544 75.5026 73.3552 75.5026 73.4772V78.9448C75.5026 79.1941 75.3594 79.316 75.0836 79.316H73.2858C72.9888 79.316 72.8403 79.1994 72.8403 78.966V65.2465C72.8403 65.0132 72.9888 64.8965 73.2858 64.8965H75.0836C75.2109 64.8965 75.3116 64.9177 75.3859 64.9654C75.4654 65.0132 75.5026 65.098 75.5026 65.2253V70.3429C75.5026 70.5126 75.5238 70.6293 75.5609 70.6823C75.598 70.7354 75.6882 70.7619 75.8314 70.7619H79.7346C79.8725 70.7619 79.9732 70.7354 80.0262 70.6823C80.0793 70.6293 80.1058 70.5126 80.1058 70.3429V65.2518H80.1005Z" fill="#74768C"/>
<path d="M21.1494 92.383H20.2479C20.0888 92.383 20.0092 92.3035 20.0092 92.1444L19.9243 90.564C19.9137 90.3519 19.8819 90.1397 19.8289 89.9435C19.7759 89.7473 19.691 89.567 19.5743 89.4185C19.4577 89.2647 19.2933 89.148 19.0917 89.0632C18.8902 88.9783 18.6303 88.9359 18.3281 88.9359C17.7977 88.9359 17.3894 89.095 17.1136 89.4132C16.8379 89.7314 16.7 90.1079 16.7 90.5534V92.2186C16.7 92.33 16.6416 92.3883 16.5303 92.3883H15.4961C15.3848 92.3883 15.3264 92.3353 15.3264 92.2345V85.0857C15.3264 84.9744 15.3795 84.916 15.4802 84.916H16.5356C16.6363 84.916 16.6894 84.9691 16.6894 85.0698V87.7374C16.6894 87.8646 16.7159 87.9336 16.7742 87.9601C16.8325 87.9813 16.8856 87.9654 16.9439 87.9124L19.5743 85.0433C19.6327 84.985 19.7122 84.9584 19.813 84.9584H21.0699C21.1971 84.9584 21.2555 85.0115 21.2555 85.1122C21.2555 85.1335 21.2502 85.16 21.2289 85.1865C21.213 85.213 21.1918 85.2395 21.1706 85.2607L18.9273 87.6737C18.8584 87.7533 18.8796 87.8116 18.9963 87.8434C19.1076 87.854 19.2137 87.8646 19.3092 87.8752C19.4046 87.8858 19.5001 87.9018 19.5902 87.9283C19.9084 88.0078 20.1736 88.1298 20.391 88.2942C20.6032 88.4586 20.7782 88.6548 20.9108 88.8882C21.038 89.1215 21.1388 89.3761 21.1971 89.6624C21.2608 89.9435 21.3032 90.2458 21.3244 90.564L21.3933 92.1072C21.3827 92.2875 21.3032 92.383 21.1494 92.383Z" fill="#74768C"/>
<path d="M27.736 90.1671C27.736 89.8648 27.6299 89.6049 27.4231 89.3822C27.2162 89.1648 26.898 89.0534 26.4685 89.0534H24.6282C24.5858 89.0534 24.5593 89.0852 24.5593 89.1541V91.127C24.5593 91.1853 24.5858 91.2118 24.6441 91.2118H26.5215C26.9033 91.2118 27.2003 91.1163 27.4178 90.9148C27.6299 90.7239 27.736 90.4694 27.736 90.1671ZM27.5132 87.0275C27.5132 86.7465 27.4071 86.5184 27.2003 86.3487C26.9935 86.1737 26.6965 86.0889 26.3147 86.0889H24.6601C24.6017 86.0889 24.5752 86.1048 24.5699 86.1419C24.5646 86.1737 24.5593 86.2161 24.5593 86.2586V87.9079C24.5593 87.9874 24.5911 88.0246 24.6601 88.0246H26.3306C26.7124 88.0246 27.0041 87.9238 27.2056 87.7329C27.4125 87.5313 27.5132 87.298 27.5132 87.0275ZM29.0459 90.1883C29.0459 90.8565 28.8231 91.3921 28.383 91.7899C27.9428 92.1876 27.3329 92.3838 26.548 92.3838H23.4562C23.2865 92.3838 23.2017 92.3096 23.2017 92.1611V85.1661C23.2017 85.1078 23.2176 85.06 23.2441 85.0123C23.2706 84.9646 23.3396 84.9434 23.4403 84.9434H26.3783C27.1473 84.9434 27.7466 85.1237 28.1761 85.479C28.6057 85.8343 28.8231 86.3328 28.8231 86.9798C28.8231 87.2397 28.7542 87.5048 28.611 87.7753C28.4678 88.0458 28.2663 88.2632 28.0064 88.417C27.9852 88.4276 27.9693 88.4435 27.964 88.4594C27.9587 88.4753 27.9799 88.4965 28.0223 88.5178C28.3829 88.6769 28.6428 88.9102 28.8019 89.2231C28.9663 89.5413 29.0459 89.8595 29.0459 90.1883Z" fill="#74768C"/>
<path d="M32.1854 89.8531C32.1854 90.2721 32.3074 90.6274 32.5566 90.9138C32.8059 91.2001 33.193 91.3486 33.7127 91.3486C34.1794 91.3486 34.5453 91.2054 34.8158 90.9244C35.0863 90.6433 35.2241 90.288 35.2241 89.8531C35.2241 89.4341 35.1022 89.0788 34.8582 88.7924C34.6143 88.5061 34.2271 88.3576 33.6968 88.3576C33.2301 88.3576 32.8642 88.5008 32.5937 88.7818C32.3233 89.0682 32.1854 89.4235 32.1854 89.8531ZM30.9126 89.8849C30.9126 89.5243 30.9709 89.1849 31.0929 88.8667C31.2096 88.5485 31.3846 88.2727 31.6179 88.0447C31.8513 87.8114 32.1377 87.631 32.4771 87.4932C32.8165 87.3553 33.2142 87.2916 33.665 87.2916C34.1635 87.2916 34.609 87.3977 35.0067 87.6151C35.0863 87.6629 35.1552 87.6735 35.2188 87.6576C35.2825 87.6416 35.3143 87.5833 35.3143 87.4772V87.3235C35.3143 86.8727 35.1976 86.5386 34.9643 86.3211C34.731 86.109 34.3438 85.9976 33.8029 85.9976C33.7021 85.9976 33.5695 86.0082 33.4104 86.0295C33.2513 86.0507 33.0922 86.0825 32.9278 86.1143C32.7634 86.1461 32.599 86.1885 32.4452 86.2416C32.2861 86.2946 32.1589 86.3476 32.0528 86.4007C31.9255 86.459 31.8407 86.4219 31.7982 86.2999L31.5119 85.5522C31.48 85.4408 31.5066 85.3665 31.5967 85.3294C31.9043 85.1703 32.2702 85.0483 32.6998 84.9582C33.1294 84.868 33.5483 84.8203 33.9567 84.8203C34.4764 84.8203 34.9113 84.8839 35.2666 85.0059C35.6166 85.1279 35.8977 85.3135 36.1098 85.5522C36.3166 85.7908 36.4651 86.0772 36.55 86.4113C36.6348 86.7454 36.6772 87.1166 36.6772 87.525V92.2131C36.6772 92.3244 36.6242 92.3828 36.5234 92.3828H35.5901C35.4893 92.3828 35.4363 92.335 35.4363 92.2449V91.9373C35.4363 91.8577 35.4151 91.81 35.3673 91.7994C35.3196 91.7888 35.2719 91.81 35.2135 91.8683C34.9855 92.0964 34.7309 92.2555 34.4393 92.3456C34.1529 92.4358 33.84 92.4835 33.5165 92.4835C32.668 92.4835 32.021 92.2449 31.5808 91.7676C31.13 91.2956 30.9126 90.6698 30.9126 89.8849Z" fill="#74768C"/>
<path d="M43.6459 87.674C43.6459 87.202 43.508 86.8096 43.2323 86.4967C42.9565 86.1891 42.5481 86.03 42.0178 86.03C41.5405 86.03 41.1534 86.1838 40.8458 86.4967C40.5382 86.8096 40.3897 87.1914 40.3897 87.6581V89.6574C40.3897 90.1188 40.5382 90.5165 40.8405 90.84C41.1428 91.1689 41.5352 91.3333 42.0231 91.3333C42.5216 91.3333 42.9194 91.1742 43.2111 90.8507C43.5027 90.5272 43.6512 90.1294 43.6512 89.6574V87.674H43.6459ZM45.0036 89.6521C45.0036 90.0499 44.9346 90.4211 44.802 90.7658C44.6695 91.1105 44.4785 91.4128 44.2346 91.6727C43.9906 91.9325 43.7043 92.1393 43.3701 92.2825C43.036 92.431 42.6754 92.5053 42.2777 92.5053C41.8375 92.5053 41.4981 92.4522 41.2542 92.3462C41.0102 92.2401 40.8193 92.1181 40.6708 91.9803C40.5806 91.9007 40.5117 91.8795 40.4587 91.9219C40.4056 91.9643 40.3844 92.0174 40.3844 92.081V95.2895C40.3844 95.4009 40.3314 95.4592 40.2306 95.4592H39.1753C39.0745 95.4592 39.0215 95.4062 39.0215 95.3054V85.1019C39.0215 85.0012 39.0745 84.9481 39.1753 84.9481H40.1086C40.22 84.9481 40.2784 85.0012 40.2784 85.1019V85.4572C40.2784 85.5262 40.3049 85.558 40.3632 85.5527C40.4215 85.5474 40.4799 85.5103 40.5488 85.4413C40.6973 85.3194 40.9147 85.1921 41.2011 85.0595C41.4875 84.9322 41.8481 84.8633 42.2777 84.8633C43.0891 84.8633 43.7467 85.1019 44.2505 85.5845C44.7543 86.0671 45.0036 86.7512 45.0036 87.6475V89.6521V89.6521Z" fill="#74768C"/>
<path d="M51.8976 86.083H50.0468C49.999 86.083 49.9725 86.0989 49.9513 86.136C49.9354 86.1679 49.9248 86.205 49.9248 86.2368V92.1446C49.9248 92.2348 49.9089 92.2984 49.8824 92.3302C49.8558 92.3621 49.7975 92.3833 49.7074 92.3833H48.8164C48.6467 92.3833 48.5672 92.309 48.5672 92.1605V86.2315C48.5672 86.1307 48.5247 86.0777 48.4293 86.0777H46.6474C46.5572 86.0777 46.4936 86.0618 46.4512 86.0353C46.4087 86.0088 46.3928 85.9451 46.3928 85.855V85.1602C46.3928 85.0117 46.4777 84.9375 46.6474 84.9375H51.8923C52.062 84.9375 52.1469 85.0064 52.1469 85.1443V85.8603C52.1575 86.0088 52.0726 86.083 51.8976 86.083Z" fill="#74768C"/>
<path d="M53.7007 85.117C53.7007 85.0056 53.7749 84.9473 53.9234 84.9473H54.8409C54.931 84.9473 54.9841 84.9632 55 85.0003C55.0159 85.0321 55.0265 85.0798 55.0265 85.1382V89.996C55.0265 90.1339 55.0583 90.1551 55.1273 90.0649L56.0447 88.5535L58.1342 85.2071C58.1925 85.117 58.2456 85.0533 58.2933 85.0109C58.3463 84.9685 58.4312 84.9526 58.5585 84.9526H59.3221C59.4123 84.9526 59.4706 84.9685 59.4971 85.0056C59.5237 85.0374 59.5396 85.0852 59.5396 85.1435V92.2074C59.5396 92.3294 59.4759 92.393 59.354 92.393H58.3835C58.3039 92.393 58.2509 92.3824 58.2244 92.3612C58.1978 92.34 58.1819 92.2817 58.1819 92.1915V87.2807C58.1819 87.2224 58.1713 87.2012 58.1554 87.2065C58.1395 87.2118 58.1183 87.2277 58.0971 87.2489L57.2327 88.6914L55.0583 92.1915C54.9894 92.3135 54.931 92.3824 54.8886 92.3877C54.8409 92.393 54.7932 92.3983 54.7348 92.3983H53.9181C53.828 92.3983 53.7696 92.3877 53.7431 92.3665C53.7166 92.3453 53.7007 92.287 53.7007 92.1968V85.117Z" fill="#74768C"/>
<path d="M66.4553 87.674C66.4553 87.202 66.3174 86.8096 66.0416 86.4967C65.7658 86.1891 65.3575 86.03 64.8272 86.03C64.3499 86.03 63.9627 86.1838 63.6551 86.4967C63.3475 86.8096 63.1991 87.1914 63.1991 87.6581V89.6574C63.1991 90.1188 63.3476 90.5165 63.6498 90.84C63.9521 91.1689 64.3446 91.3333 64.8325 91.3333C65.331 91.3333 65.7287 91.1742 66.0204 90.8507C66.3121 90.5272 66.4606 90.1294 66.4606 89.6574V87.674H66.4553ZM67.8129 89.6521C67.8129 90.0499 67.744 90.4211 67.6114 90.7658C67.4735 91.1105 67.2879 91.4128 67.0439 91.6727C66.8 91.9325 66.5136 92.1393 66.1795 92.2825C65.8454 92.431 65.4848 92.5053 65.087 92.5053C64.6468 92.5053 64.3074 92.4522 64.0635 92.3462C63.8195 92.2401 63.6286 92.1181 63.4801 91.9803C63.39 91.9007 63.321 91.8795 63.268 91.9219C63.215 91.9643 63.1938 92.0174 63.1938 92.081V95.2895C63.1938 95.4009 63.1407 95.4592 63.04 95.4592H61.9846C61.8838 95.4592 61.8308 95.4062 61.8308 95.3054V85.1019C61.8308 85.0012 61.8838 84.9481 61.9846 84.9481H62.918C63.0294 84.9481 63.0877 85.0012 63.0877 85.1019V85.4572C63.0877 85.5262 63.1142 85.558 63.1725 85.5527C63.2309 85.5474 63.2892 85.5103 63.3582 85.4413C63.5066 85.3194 63.7241 85.1921 64.0105 85.0595C64.2968 84.9322 64.6575 84.8633 65.087 84.8633C65.8984 84.8633 66.556 85.1019 67.0598 85.5845C67.5636 86.0671 67.8129 86.7512 67.8129 87.6475V89.6521V89.6521Z" fill="#74768C"/>
</svg>
