<svg width="19" height="24" viewBox="0 0 19 24" fill="none" xmlns="http://www.w3.org/2000/svg">
<path d="M9.5 0C14.7469 0 19 4.42202 19 9.87736C19 14.0512 16.1792 18.5998 10.6108 23.5719C10.3011 23.8485 9.90637 24.0004 9.49818 24C9.08999 23.9996 8.69547 23.847 8.38631 23.5699L8.018 23.2376C2.69605 18.3952 0 13.958 0 9.87736C0 4.42202 4.25308 0 9.5 0ZM9.5 1.51959C7.36807 1.51959 5.32345 2.40014 3.81595 3.96753C2.30845 5.53491 1.46154 7.66074 1.46154 9.87736C1.46154 13.4251 3.9442 17.5128 8.97774 22.0918L9.34118 22.4191C9.38537 22.4586 9.44172 22.4803 9.5 22.4803C9.55828 22.4803 9.61463 22.4586 9.65882 22.4191C14.9359 17.7063 17.5385 13.5092 17.5385 9.87736C17.5385 8.7798 17.3305 7.69299 16.9266 6.67898C16.5226 5.66497 15.9305 4.74362 15.1841 3.96753C14.4376 3.19144 13.5515 2.57581 12.5762 2.15579C11.6009 1.73577 10.5556 1.51959 9.5 1.51959ZM9.5 6.07837C10.4691 6.07837 11.3984 6.47862 12.0837 7.19107C12.7689 7.90352 13.1538 8.8698 13.1538 9.87736C13.1538 10.8849 12.7689 11.8512 12.0837 12.5636C11.3984 13.2761 10.4691 13.6763 9.5 13.6763C8.53094 13.6763 7.60157 13.2761 6.91634 12.5636C6.23111 11.8512 5.84615 10.8849 5.84615 9.87736C5.84615 8.8698 6.23111 7.90352 6.91634 7.19107C7.60157 6.47862 8.53094 6.07837 9.5 6.07837ZM9.5 7.59797C8.91856 7.59797 8.36094 7.83812 7.9498 8.26558C7.53867 8.69305 7.30769 9.27282 7.30769 9.87736C7.30769 10.4819 7.53867 11.0617 7.9498 11.4891C8.36094 11.9166 8.91856 12.1567 9.5 12.1567C10.0814 12.1567 10.6391 11.9166 11.0502 11.4891C11.4613 11.0617 11.6923 10.4819 11.6923 9.87736C11.6923 9.27282 11.4613 8.69305 11.0502 8.26558C10.6391 7.83812 10.0814 7.59797 9.5 7.59797Z" fill="#D44B4B"/>
</svg>
